<svg width="182" height="60" viewBox="0 0 182 60" fill="none" xmlns="http://www.w3.org/2000/svg">
<path d="M28.9943 57.146C29.1457 57.2977 29.3476 57.2977 29.499 57.146L35.0506 51.7383C35.101 51.6878 35.1515 51.5867 35.1515 51.4856V42.2369L44.4377 50.9297C44.4882 50.9802 44.5891 51.0308 44.6901 51.0308C44.791 51.0308 44.791 51.0308 44.8415 51.0308L49.8884 48.3016C49.9893 48.2511 50.0398 48.15 50.0902 48.0489V40.5691C50.0902 40.468 50.0902 40.3669 49.9893 40.3164L37.7759 28.8439L58.0138 9.94205C58.0643 9.89151 58.1148 9.79043 58.1148 9.68935V2.41165C58.1148 2.15895 57.9129 1.90625 57.6101 1.90625H49.737C49.636 1.90625 49.5351 1.90625 49.4846 2.00733L29.2467 20.9091L8.95827 2.00733C8.9078 1.95679 8.80686 1.90625 8.70592 1.90625H0.933748C0.630936 1.90625 0.328125 2.15895 0.328125 2.46218V9.73989C0.328125 9.84097 0.328124 9.94205 0.429062 9.99259L20.667 28.8439L8.45358 40.2658C8.40311 40.3164 8.35264 40.4174 8.35264 40.5185V47.8973C8.35264 48.0995 8.45358 48.2511 8.60499 48.3521L13.5509 51.0308C13.7023 51.0813 13.8537 51.0813 13.9547 50.9802L23.2914 42.2874V51.5361C23.2914 51.6372 23.2914 51.7383 23.3923 51.7888L28.9439 57.1966L28.9943 57.146ZM1.08515 9.58827V3.06866L24.7045 25.1039L21.2222 28.3385L1.08515 9.53773V9.58827ZM9.10967 40.6701L25.4615 25.4072C25.6129 25.2555 25.6129 25.0534 25.4615 24.9018L1.64031 2.6138H8.60499L28.9943 21.6672C29.1457 21.8189 29.3476 21.8189 29.499 21.6672L49.8884 2.6138H56.8026L9.10967 47.1392V40.6701ZM28.8429 56.0342L24.0484 51.334V41.5798L28.8429 37.0818V56.0342ZM34.3945 51.334L29.6 56.0342V37.0818L34.3945 41.5798V51.334ZM49.3332 40.6701V47.1897L33.6879 32.5838L37.2207 29.2987L49.3332 40.6701ZM57.3577 9.53773L32.9309 32.3311C32.8804 32.3816 32.8299 32.4827 32.8299 32.5838C32.8299 32.6849 32.8299 32.786 32.9309 32.8365L49.0809 47.8973L44.6901 50.2727L29.4486 36.0205C29.3981 35.9699 29.2971 35.9194 29.1962 35.9194C29.0953 35.9194 28.9943 35.9194 28.9439 36.0205L13.7023 50.2727L9.36202 47.8973L57.3577 3.06866V9.53773Z" fill="black"/>
<path d="M76.1338 2.35938V8.95968L82.2243 2.35938H86.5029L80.4123 8.65738L87.0565 18.3311H82.778L78.0968 11.1766L76.1338 13.1919V18.3311H72.7109V2.35938H76.1338Z" fill="black"/>
<path d="M88.3159 7.0966C88.6682 6.08892 89.1716 5.18201 89.8259 4.42624C90.4803 3.67048 91.2856 3.06588 92.242 2.6628C93.1984 2.20935 94.2554 2.00781 95.4635 2.00781C96.6715 2.00781 97.7286 2.20935 98.685 2.6628C99.6413 3.11626 100.447 3.67048 101.101 4.42624C101.755 5.18201 102.259 6.08892 102.611 7.0966C102.963 8.10428 103.114 9.21273 103.114 10.4219C103.114 11.6312 102.963 12.6892 102.611 13.6969C102.259 14.7046 101.755 15.5611 101.101 16.3169C100.447 17.0726 99.6413 17.6269 98.685 18.0803C97.7286 18.4834 96.6715 18.7353 95.4635 18.7353C94.2554 18.7353 93.1984 18.5338 92.242 18.0803C91.2856 17.6772 90.4803 17.0726 89.8259 16.3169C89.1716 15.5611 88.6682 14.7046 88.3159 13.6969C87.9635 12.6892 87.8125 11.6312 87.8125 10.4219C87.8125 9.21273 87.9635 8.10428 88.3159 7.0966ZM91.4367 12.3365C91.5877 12.9915 91.8393 13.5458 92.1414 14.0496C92.4937 14.5534 92.8964 14.9565 93.4501 15.2588C94.0038 15.5611 94.6581 15.7123 95.4132 15.7123C96.1682 15.7123 96.8225 15.5611 97.3762 15.2588C97.9299 14.9565 98.3326 14.5534 98.685 14.0496C99.0373 13.5458 99.2387 12.9915 99.3897 12.3365C99.5407 11.6815 99.6413 11.0266 99.6413 10.3716C99.6413 9.71657 99.5407 9.01119 99.3897 8.3562C99.2387 7.70121 98.987 7.0966 98.685 6.59276C98.3326 6.08892 97.9299 5.68585 97.3762 5.38354C96.8225 5.08124 96.1682 4.93008 95.4132 4.93008C94.6581 4.93008 94.0038 5.08124 93.4501 5.38354C92.8964 5.68585 92.4937 6.08892 92.1414 6.59276C91.789 7.0966 91.5877 7.70121 91.4367 8.3562C91.2856 9.01119 91.185 9.66618 91.185 10.3716C91.185 11.0769 91.2856 11.6815 91.4367 12.3365Z" fill="black"/>
<path d="M115.344 6.59196C115.143 6.23927 114.891 5.98736 114.589 5.68505C114.287 5.43313 113.935 5.23159 113.532 5.08044C113.13 4.92929 112.727 4.87891 112.324 4.87891C111.569 4.87891 110.915 5.03006 110.361 5.33236C109.808 5.63467 109.405 6.03774 109.052 6.54158C108.7 7.04542 108.499 7.65003 108.348 8.30502C108.197 8.96001 108.096 9.615 108.096 10.3204C108.096 11.0258 108.197 11.6304 108.348 12.2854C108.499 12.9404 108.75 13.4946 109.052 13.9984C109.405 14.5023 109.808 14.9053 110.361 15.2076C110.915 15.5099 111.569 15.6611 112.324 15.6611C113.079 15.6611 114.187 15.3588 114.791 14.6534C115.395 13.9984 115.747 13.1419 115.848 12.0838H119.17C119.069 13.0915 118.868 13.9984 118.516 14.8046C118.163 15.6107 117.66 16.3161 117.056 16.8703C116.452 17.4245 115.747 17.878 114.992 18.1803C114.187 18.4826 113.331 18.6337 112.375 18.6337C111.418 18.6337 110.11 18.4322 109.153 17.9788C108.197 17.5757 107.391 16.9711 106.737 16.2153C106.083 15.4596 105.579 14.603 105.227 13.5953C104.875 12.5877 104.724 11.5296 104.724 10.3204C104.724 9.11116 104.875 8.00272 105.227 6.99504C105.579 5.98736 106.083 5.08044 106.737 4.32468C107.391 3.56892 108.197 2.96431 109.153 2.56124C110.11 2.10779 111.167 1.90625 112.375 1.90625C113.583 1.90625 114.036 2.0574 114.791 2.30932C115.546 2.56124 116.25 2.91393 116.854 3.41777C117.459 3.92161 117.962 4.52622 118.365 5.2316C118.767 5.93697 119.019 6.74312 119.12 7.70041H115.797C115.747 7.29734 115.596 6.94465 115.395 6.59196H115.344Z" fill="black"/>
<path d="M124.908 2.35938V8.50623H131.2V2.35938H134.623V18.3311H131.2V11.4285H124.908V18.3311H121.485V2.35938H124.908Z" fill="black"/>
<path d="M141.017 2.35938V18.3311H137.594V2.35938H141.017Z" fill="black"/>
<path d="M72.7109 44.6873H81.117V46.5515H74.825V49.7761H80.3619V51.5395H74.825V56.981H72.7109V44.7881V44.6873Z" fill="black"/>
<path d="M88.0621 44.3828C88.9681 44.3828 89.7735 44.5339 90.5285 44.8866C91.2332 45.2393 91.8876 45.6928 92.391 46.2974C92.8943 46.902 93.297 47.557 93.5487 48.3127C93.8003 49.0685 93.9513 49.925 93.9513 50.7815C93.9513 51.6381 93.8003 52.4946 93.5487 53.2504C93.297 54.0061 92.8943 54.7115 92.391 55.2657C91.8876 55.8703 91.2836 56.3238 90.5285 56.6261C89.8238 56.9788 88.9681 57.1299 88.0621 57.1299C87.1561 57.1299 86.3507 56.9788 85.5957 56.6261C84.891 56.2734 84.2366 55.8199 83.7332 55.2657C83.2299 54.6611 82.8272 54.0061 82.5755 53.2504C82.3239 52.4946 82.1729 51.6381 82.1729 50.7815C82.1729 49.925 82.3239 49.0685 82.5755 48.3127C82.8272 47.557 83.2299 46.8516 83.7332 46.2974C84.2366 45.6928 84.8406 45.2393 85.5957 44.8866C86.3004 44.5339 87.1561 44.3828 88.0621 44.3828ZM88.0621 46.1462C87.4077 46.1462 86.854 46.2974 86.401 46.5493C85.948 46.8012 85.5453 47.1539 85.2433 47.6073C84.9413 48.0608 84.74 48.5646 84.589 49.1189C84.4379 49.6731 84.3876 50.2273 84.3876 50.8319C84.3876 51.4365 84.4379 51.9908 84.589 52.545C84.74 53.0992 84.9413 53.603 85.2433 54.0565C85.5453 54.51 85.948 54.8626 86.401 55.1146C86.854 55.3665 87.4581 55.5176 88.0621 55.5176C88.6661 55.5176 89.2702 55.3665 89.7232 55.1146C90.1762 54.8626 90.5789 54.51 90.8809 54.0565C91.1829 53.603 91.3842 53.0992 91.5352 52.545C91.6863 51.9908 91.7366 51.4365 91.7366 50.8319C91.7366 50.2273 91.6863 49.6731 91.5352 49.1189C91.3842 48.5646 91.1829 48.0608 90.8809 47.6073C90.5789 47.1539 90.1762 46.8012 89.7232 46.5493C89.2702 46.2974 88.6661 46.1462 88.0621 46.1462Z" fill="black"/>
<path d="M95.7129 44.6875H97.827V51.7916C97.827 52.1947 97.827 52.5977 97.8773 53.0512C97.8773 53.4543 98.0283 53.8574 98.2297 54.21C98.431 54.5627 98.6827 54.8146 99.0854 55.0162C99.488 55.2177 99.9914 55.3185 100.696 55.3185C101.401 55.3185 101.954 55.2177 102.307 55.0162C102.71 54.8146 102.961 54.5123 103.163 54.21C103.364 53.8574 103.465 53.5047 103.515 53.0512C103.515 52.6481 103.565 52.1947 103.565 51.7916V44.6875H105.679V52.497C105.679 53.3031 105.579 53.9581 105.327 54.5627C105.075 55.1673 104.773 55.6208 104.32 56.0239C103.867 56.4269 103.364 56.7292 102.76 56.8804C102.156 57.0819 101.451 57.1827 100.696 57.1827C99.9411 57.1827 99.2364 57.0819 98.6323 56.8804C98.0283 56.6788 97.4746 56.3765 97.0719 56.0239C96.6189 55.6208 96.3169 55.1673 96.0652 54.5627C95.8136 53.9581 95.7129 53.3031 95.7129 52.497V44.6875Z" fill="black"/>
<path d="M108.096 44.6873H110.361L115.948 53.706V44.6873H117.961V56.8802H115.696L110.159 47.9119H110.109V56.8802H108.096V44.6873Z" fill="black"/>
<path d="M120.529 44.6873H125.613C126.57 44.6873 127.375 44.8384 128.029 45.1911C128.734 45.4934 129.288 45.9469 129.69 46.5011C130.143 47.0553 130.445 47.7103 130.647 48.4661C130.848 49.2219 130.949 49.9776 130.949 50.8341C130.949 51.6907 130.848 52.4464 130.647 53.2022C130.445 53.958 130.093 54.6129 129.69 55.1672C129.237 55.7214 128.684 56.1749 128.029 56.4772C127.325 56.7795 126.519 56.981 125.613 56.981H120.529V44.7881V44.6873ZM122.694 55.1672H124.808C125.664 55.1672 126.318 55.0664 126.872 54.8145C127.425 54.6129 127.828 54.2603 128.13 53.9076C128.432 53.5045 128.633 53.051 128.734 52.4968C128.835 51.9426 128.885 51.3884 128.885 50.7838C128.885 50.1792 128.835 49.5745 128.734 49.0707C128.633 48.5165 128.432 48.063 128.13 47.66C127.828 47.2569 127.425 46.9546 126.872 46.753C126.318 46.5515 125.664 46.4004 124.808 46.4004H122.694V55.1168V55.1672Z" fill="black"/>
<path d="M136.133 44.6875H138.399L143.08 56.8804H140.764L139.607 53.6558H134.724L133.566 56.8804H131.352L136.033 44.6875H136.133ZM135.378 52.0435H139.103L137.291 46.8036H137.241L135.378 52.0435Z" fill="black"/>
<path d="M141.571 44.6873H151.437V46.5515H147.561V56.9306H145.447V46.5515H141.571V44.6873Z" fill="black"/>
<path d="M152.846 44.6873H154.96V56.8802H152.846V44.6873Z" fill="black"/>
<path d="M162.811 44.3828C163.717 44.3828 164.523 44.5339 165.278 44.8866C165.982 45.2393 166.637 45.6928 167.14 46.2974C167.643 46.902 168.046 47.557 168.298 48.3127C168.549 49.0685 168.7 49.925 168.7 50.7815C168.7 51.6381 168.549 52.4946 168.298 53.2504C168.046 54.0061 167.643 54.7115 167.14 55.2657C166.637 55.8703 166.033 56.3238 165.278 56.6261C164.573 56.9788 163.717 57.1299 162.811 57.1299C161.905 57.1299 161.1 56.9788 160.345 56.6261C159.64 56.2734 158.986 55.8199 158.482 55.2657C157.979 54.6611 157.576 54.0061 157.325 53.2504C157.073 52.4946 156.922 51.6381 156.922 50.7815C156.922 49.925 157.073 49.0685 157.325 48.3127C157.576 47.557 157.979 46.8516 158.482 46.2974C158.986 45.6928 159.59 45.2393 160.345 44.8866C161.049 44.5339 161.905 44.3828 162.811 44.3828ZM162.811 46.1462C162.157 46.1462 161.603 46.2974 161.15 46.5493C160.697 46.8012 160.294 47.1539 159.992 47.6073C159.69 48.0608 159.489 48.5646 159.338 49.1189C159.187 49.6731 159.137 50.2273 159.137 50.8319C159.137 51.4365 159.187 51.9908 159.338 52.545C159.489 53.0992 159.69 53.603 159.992 54.0565C160.294 54.51 160.697 54.8626 161.15 55.1146C161.603 55.3665 162.207 55.5176 162.811 55.5176C163.415 55.5176 164.019 55.3665 164.472 55.1146C164.925 54.8626 165.328 54.51 165.63 54.0565C165.932 53.603 166.133 53.0992 166.284 52.545C166.435 51.9908 166.486 51.4365 166.486 50.8319C166.486 50.2273 166.435 49.6731 166.284 49.1189C166.133 48.5646 165.932 48.0608 165.63 47.6073C165.328 47.1539 164.925 46.8012 164.472 46.5493C164.019 46.2974 163.415 46.1462 162.811 46.1462Z" fill="black"/>
<path d="M170.513 44.6873H172.778L178.365 53.706V44.6873H180.378V56.8802H178.113L172.576 47.9119H172.526V56.8802H170.513V44.6873Z" fill="black"/>
<path d="M80.0584 23.5148C80.8134 23.5148 81.4678 23.5652 82.0718 23.7164C82.6759 23.8675 83.1792 24.0691 83.6322 24.3714C84.0852 24.6737 84.3873 25.0767 84.6389 25.5806C84.8906 26.0844 84.9913 26.689 84.9913 27.4448C84.9913 28.2005 84.7899 28.9059 84.4376 29.4601C84.0852 30.0144 83.5316 30.4174 82.8772 30.7701C83.8336 31.0724 84.5383 31.5259 85.0416 32.2313C85.4946 32.9366 85.7463 33.7932 85.7463 34.8009C85.7463 35.8085 85.5953 36.3124 85.2933 36.8666C84.9913 37.4712 84.5886 37.9247 84.0852 38.3277C83.5819 38.6804 82.9779 38.9827 82.3235 39.1339C81.6691 39.3354 80.9644 39.3858 80.3101 39.3858H72.7598V23.4141H80.0584V23.5148ZM79.6054 29.964C80.2094 29.964 80.7128 29.8128 81.1155 29.5105C81.5181 29.2082 81.7195 28.7044 81.7195 28.0494C81.7195 27.3944 81.6691 27.3944 81.5181 27.1425C81.3671 26.8906 81.2161 26.7394 81.0148 26.5883C80.8134 26.4371 80.5618 26.3363 80.2597 26.286C79.9577 26.2356 79.7061 26.1852 79.3537 26.1852H76.1322V29.9136H79.6054V29.964ZM79.8067 36.7658C80.1591 36.7658 80.4611 36.7658 80.7631 36.6651C81.0651 36.6147 81.3168 36.4635 81.5685 36.3124C81.8202 36.1612 81.9712 35.9597 82.1222 35.6574C82.2732 35.4055 82.3235 35.0528 82.3235 34.6497C82.3235 33.8436 82.1222 33.2389 81.6691 32.8863C81.2161 32.5336 80.6121 32.3824 79.9074 32.3824H76.1826V36.7658H79.8571H79.8067Z" fill="black"/>
<path d="M91.4834 23.5234V39.4952H88.0605V23.5234H91.4834Z" fill="black"/>
<path d="M106.08 23.5234V26.4961H97.875V29.9222H105.425V32.643H97.875V36.5729H106.231V39.5456H94.4521V23.5738H106.08V23.5234Z" fill="black"/>
<path d="M111.971 23.5234L118.464 34.2552V23.5234H121.686V39.4952H118.263L111.82 28.8138V39.4952H108.599V23.5234H111.971Z" fill="black"/>
<path d="M128.079 23.5234L134.572 34.2552V23.5234H137.793V39.4952H134.37L127.928 28.8138V39.4952H124.706V23.5234H128.079Z" fill="black"/>
<path d="M148.564 23.5234L154.353 39.4952H150.829L149.671 35.9179H143.883L142.675 39.4952H139.252L145.141 23.5234H148.665H148.564ZM148.765 33.2979L146.802 27.4534L144.789 33.2979H148.816H148.765Z" fill="black"/>
<path d="M159.137 23.5234V36.5225H166.687V39.4952H155.714V23.5234H159.137Z" fill="black"/>
<path d="M180.224 23.5234V26.4961H172.019V29.9222H179.57V32.643H172.019V36.5729H180.375V39.5456H168.597V23.5738H180.224V23.5234Z" fill="black"/>
</svg>
